<?xml version="1.0" encoding="UTF-8" standalone="no"?><!DOCTYPE svg PUBLIC "-//W3C//DTD SVG 1.1//EN" "http://www.w3.org/Graphics/SVG/1.1/DTD/svg11.dtd"><svg width="100%" height="100%" viewBox="0 0 8339 8221" version="1.1" xmlns="http://www.w3.org/2000/svg" xmlns:xlink="http://www.w3.org/1999/xlink" xml:space="preserve" xmlns:serif="http://www.serif.com/" style="fill-rule:evenodd;clip-rule:evenodd;stroke-linecap:round;stroke-linejoin:round;stroke-miterlimit:1.5;"><rect x="0" y="0" width="8338.583" height="8220.472" style="fill:#ededed;"/><path d="M4985.418,2305.304l502.061,-992.363c59.11,-33.252 110.697,-40.402 149.575,-20.733c122.239,61.844 91.597,368.779 -68.384,684.994c-159.981,316.215 -389.107,522.732 -511.346,460.888c-38.878,-19.669 -63.678,-65.466 -71.906,-132.786Z" style="fill:#e85858;"/><path d="M1121.805,1884.494l-218.529,-1223.762l218.529,0l148.6,882.857l6.993,0l167.83,-655.587l174.823,0l167.83,655.587l6.993,0l148.6,-882.857l218.529,0l-218.529,1223.762l-227.27,0l-180.068,-681.81l-6.993,0l-180.068,681.81l-227.27,0Z" style="fill:#4f67c6;fill-rule:nonzero;"/><path d="M2655.005,1901.976c-89.743,0 -163.751,-14.86 -222.025,-44.58c-58.274,-29.72 -101.397,-77.796 -129.369,-144.229c-27.972,-66.433 -41.958,-155.01 -41.958,-265.731c0,-110.721 13.112,-199.298 39.335,-265.731c26.223,-66.433 64.102,-114.509 113.635,-144.229c49.533,-29.72 109.264,-44.58 179.194,-44.58c69.929,0 129.661,14.86 179.194,44.58c49.533,29.72 87.412,77.796 113.635,144.229c26.223,66.433 39.335,155.01 39.335,265.731l0,61.188l-454.54,0c0,100.232 17.774,170.453 53.321,210.662c35.547,40.209 90.617,60.314 165.208,60.314l192.306,0l0,87.412c-25.641,8.158 -58.857,16.025 -99.649,23.601c-40.792,7.576 -83.332,11.364 -127.621,11.364Zm-183.564,-515.728l244.752,0c0,-75.757 -5.245,-133.74 -15.734,-173.949c-10.489,-40.209 -25.058,-67.89 -43.706,-83.041c-18.648,-15.151 -39.627,-22.727 -62.936,-22.727c-23.31,0 -44.289,7.576 -62.936,22.727c-18.648,15.151 -33.216,42.832 -43.706,83.041c-10.489,40.209 -15.734,98.192 -15.734,173.949Z" style="fill:#4f67c6;fill-rule:nonzero;"/><rect x="3121.783" y="660.732" width="209.788" height="1223.762" style="fill:#4f67c6;fill-rule:nonzero;"/><path d="M3894.501,1901.976c-81.584,0 -149.474,-14.86 -203.669,-44.58c-54.195,-29.72 -94.987,-77.796 -122.376,-144.229c-27.389,-66.433 -41.083,-155.01 -41.083,-265.731c0,-110.721 13.403,-199.298 40.209,-265.731c26.806,-66.433 66.141,-114.509 118.006,-144.229c51.864,-29.72 115.675,-44.58 191.431,-44.58c44.289,0 86.829,3.496 127.621,10.489c40.792,6.993 74.008,15.151 99.649,24.475l0,87.412l-192.306,0c-34.965,0 -65.559,9.324 -91.782,27.972c-26.223,18.648 -46.62,52.156 -61.188,100.523c-14.569,48.368 -21.853,116.257 -21.853,203.669c0,87.412 7.576,155.01 22.727,202.795c15.151,47.785 37.004,81.293 65.559,100.523c28.554,19.231 63.228,28.846 104.02,28.846l192.306,0l0,87.412c-25.641,8.158 -58.857,16.025 -99.649,23.601c-40.792,7.576 -83.332,11.364 -127.621,11.364Z" style="fill:#4f67c6;fill-rule:nonzero;"/><path d="M4553.585,1901.976c-75.757,0 -139.567,-14.86 -191.431,-44.58c-51.864,-29.72 -91.199,-77.796 -118.006,-144.229c-26.806,-66.433 -40.209,-155.01 -40.209,-265.731c0,-110.721 13.403,-199.298 40.209,-265.731c26.806,-66.433 66.141,-114.509 118.006,-144.229c51.864,-29.72 115.675,-44.58 191.431,-44.58c75.757,0 139.567,14.86 191.431,44.58c51.864,29.72 91.199,77.796 118.006,144.229c26.806,66.433 40.209,155.01 40.209,265.731c0,110.721 -13.403,199.298 -40.209,265.731c-26.806,66.433 -66.141,114.509 -118.006,144.229c-51.864,29.72 -115.675,44.58 -191.431,44.58Zm0,-113.635c26.806,0 50.699,-9.615 71.678,-28.846c20.979,-19.231 37.587,-53.612 49.825,-103.146c12.238,-49.533 18.356,-119.171 18.356,-208.914c0,-90.908 -6.119,-160.837 -18.356,-209.788c-12.238,-48.95 -28.846,-83.041 -49.825,-102.272c-20.979,-19.231 -44.871,-28.846 -71.678,-28.846c-25.641,0 -49.242,9.615 -70.803,28.846c-21.562,19.231 -38.461,53.321 -50.699,102.272c-12.238,48.95 -18.356,118.88 -18.356,209.788c0,89.743 6.119,159.38 18.356,208.914c12.238,49.533 29.137,83.915 50.699,103.146c21.562,19.231 45.163,28.846 70.803,28.846Z" style="fill:#4f67c6;fill-rule:nonzero;"/><path d="M5090.292,1884.494l0,-874.116l148.6,0l26.223,52.447l8.741,0c18.648,-17.482 43.706,-33.508 75.174,-48.076c31.468,-14.569 73.426,-21.853 125.873,-21.853c44.289,0 81.876,6.119 112.761,18.356c30.885,12.238 57.4,29.429 79.545,51.573c26.806,-22.144 58.274,-39.335 94.405,-51.573c36.13,-12.238 80.419,-18.356 132.866,-18.356c46.62,0 89.743,7.576 129.369,22.727c39.627,15.151 71.678,42.832 96.153,83.041c24.475,40.209 36.713,98.192 36.713,173.949l0,611.881l-209.788,0l0,-611.881c0,-40.792 -6.702,-72.552 -20.105,-95.279c-13.403,-22.727 -30.011,-38.752 -49.825,-48.076c-19.813,-9.324 -40.209,-13.986 -61.188,-13.986c-22.144,0 -41.958,2.622 -59.44,7.867c-17.482,5.245 -32.634,11.364 -45.454,18.356c4.662,12.82 8.741,31.177 12.238,55.069c3.496,23.893 5.245,49.242 5.245,76.048l0,611.881l-209.788,0l0,-611.881c0,-40.792 -6.41,-72.552 -19.231,-95.279c-12.82,-22.727 -28.846,-38.752 -48.076,-48.076c-19.231,-9.324 -37.587,-13.986 -55.069,-13.986c-22.144,0 -41.375,3.496 -57.692,10.489c-16.317,6.993 -29.137,15.151 -38.461,24.475l0,734.257l-209.788,0Z" style="fill:#4f67c6;fill-rule:nonzero;"/><path d="M6737.126,1901.976c-89.743,0 -163.751,-14.86 -222.025,-44.58c-58.274,-29.72 -101.397,-77.796 -129.369,-144.229c-27.972,-66.433 -41.958,-155.01 -41.958,-265.731c0,-110.721 13.112,-199.298 39.335,-265.731c26.223,-66.433 64.102,-114.509 113.635,-144.229c49.533,-29.72 109.264,-44.58 179.194,-44.58c69.929,0 129.661,14.86 179.194,44.58c49.533,29.72 87.412,77.796 113.635,144.229c26.223,66.433 39.335,155.01 39.335,265.731l0,61.188l-454.54,0c0,100.232 17.774,170.453 53.321,210.662c35.547,40.209 90.617,60.314 165.208,60.314l192.306,0l0,87.412c-25.641,8.158 -58.857,16.025 -99.649,23.601c-40.792,7.576 -83.332,11.364 -127.621,11.364Zm-183.564,-515.728l244.752,0c0,-75.757 -5.245,-133.74 -15.734,-173.949c-10.489,-40.209 -25.058,-67.89 -43.706,-83.041c-18.648,-15.151 -39.627,-22.727 -62.936,-22.727c-23.31,0 -44.289,7.576 -62.936,22.727c-18.648,15.151 -33.216,42.832 -43.706,83.041c-10.489,40.209 -15.734,98.192 -15.734,173.949Z" style="fill:#4f67c6;fill-rule:nonzero;"/><path d="M7221.386,1561.071l-34.965,-900.339l244.752,0l-34.965,900.339l-174.823,0Zm-17.482,340.905l0,-209.788l209.788,0l0,209.788l-209.788,0Z" style="fill:#4f67c6;fill-rule:nonzero;"/><g id="bunny"><path d="M3493.84,7934.091l-1201.162,0c-60.867,-59.298 -92.91,-126.563 -92.91,-195.034c0,-215.285 310.743,-390.068 693.491,-390.068c382.748,0 693.491,174.784 693.491,390.068c0,68.471 -32.044,135.736 -92.91,195.034Z" style="fill:#e85858;"/><path d="M4930.718,7934.091l-1201.162,0c-60.867,-59.298 -92.91,-126.563 -92.91,-195.034c0,-215.285 310.743,-390.068 693.491,-390.068c382.748,0 693.491,174.784 693.491,390.068c0,68.471 -32.044,135.736 -92.91,195.034Z" style="fill:#e85858;"/><path d="M2219.046,6098.509c2.117,-63.606 53.274,-121.565 122.939,-132.583c69.664,-11.018 136.211,28.327 157.852,88.175c46.473,-43.479 123.63,-48.289 180.681,-6.819c57.051,41.469 76.285,116.345 49.269,173.967c63.606,2.117 121.565,53.274 132.583,122.939c11.018,69.664 -28.327,136.211 -88.175,157.852c43.479,46.473 48.289,123.63 6.819,180.681c-41.469,57.051 -116.345,76.285 -173.967,49.269c-2.117,63.606 -53.274,121.565 -122.939,132.583c-69.664,11.018 -136.211,-28.327 -157.852,-88.175c-46.473,43.479 -123.63,48.289 -180.681,6.819c-57.051,-41.469 -76.285,-116.345 -49.269,-173.967c-63.606,-2.117 -121.565,-53.274 -132.583,-122.939c-11.018,-69.664 28.327,-136.211 88.175,-157.852c-43.479,-46.473 -48.289,-123.63 -6.819,-180.681c41.469,-57.051 116.345,-76.285 173.967,-49.269Z" style="fill:#e85858;stroke:#000;stroke-opacity:0;stroke-width:25px;"/><path d="M4208.777,2712.23c-220.648,758.848 323.689,947.426 462.459,997.336c716.165,257.576 1515.924,-152.693 1454.181,-475.423c-61.743,-322.731 -435.504,-960.639 -853.741,-1091.615c-371.922,-116.472 -876.954,-69.793 -1062.898,569.703Z" style="fill:#e85858;stroke:#fff;stroke-opacity:0;stroke-width:1px;"/><path d="M2575.449,5702.721c0,0 -417.895,2109.177 1160.672,1852.112c462.311,-75.286 563.623,-245.724 628.36,-669.624c87.848,-575.23 219.448,-1280.113 566.907,-1673.291c347.459,-393.178 246.879,-1152.102 45.718,-1380.694c-201.161,-228.592 -527.157,-640.057 -1164.23,-192.017c-298.096,209.645 -564.813,484.281 -780.013,877.448c-167.473,305.971 -364.649,711.086 -414.508,967.662c-42.691,219.69 -42.907,218.405 -42.907,218.405Z" style="fill:#e85858;stroke:#000;stroke-opacity:0;stroke-width:1px;"/><path d="M4698.658,2424.985l-559.736,-805.485c-0.351,-60.283 16.494,-103.852 48.84,-126.33c101.702,-70.673 329.076,80.329 507.435,336.996c178.359,256.666 240.594,522.425 138.892,593.098c-32.346,22.478 -79.055,23.071 -135.432,1.721Z" style="fill:#e85858;"/><path d="M4515.281,4627.449l429.6,1105.089c58.624,41.671 111.891,54.9 154.447,38.356c133.804,-52.016 131.297,-380.135 -5.594,-732.27c-136.891,-352.135 -356.662,-595.793 -490.465,-543.777c-42.556,16.544 -72.902,62.277 -87.988,132.602Z" style="fill:#e85858;"/><path d="M3972.098,6985.444c0,0 -776.723,-79.232 -461.519,-1238.367c315.203,-1159.134 782.067,-1393.213 976.998,-1402.576c194.932,-9.363 734.945,332.677 140.386,1302.419c-171.378,279.522 -65.147,457.22 -287.426,1107.639c-0.561,1.641 -58.464,118.118 -123.487,168.844c-52.677,41.095 -226.663,64.305 -227.283,66.102" style="fill:#fbfbfb;stroke:#000;stroke-opacity:0;stroke-width:1px;"/><path d="M3876.254,2144.205l304.21,-653.771c46.678,-18.582 90.256,-19.521 126.355,-2.724c113.501,52.814 126.949,264.823 30.013,473.146c-96.936,208.323 -267.784,334.577 -381.284,281.763c-36.099,-16.797 -63.446,-50.74 -79.294,-98.415Z" style="fill:#e85858;"/><path d="M3953.122,4485.152l242.806,1326.236c64.082,57.725 129.295,82.352 189.083,71.406c187.984,-34.416 277.789,-405.457 200.42,-828.06c-77.37,-422.603 -292.804,-737.761 -480.788,-703.345c-59.788,10.946 -112.046,57.079 -151.521,133.763Z" style="fill:#e85858;"/><path d="M6039.844,3086.227c69.895,19.033 111.189,91.231 92.156,161.126c-19.033,69.895 -91.231,111.189 -161.126,92.156c-69.895,-19.033 -111.189,-91.231 -92.156,-161.126c19.033,-69.895 91.231,-111.189 161.126,-92.156Z" style="fill:#fbfbfb;stroke:#fff;stroke-opacity:0;stroke-width:1px;"/></g></svg>