<?xml version="1.0" encoding="UTF-8" standalone="no"?><!DOCTYPE svg PUBLIC "-//W3C//DTD SVG 1.1//EN" "http://www.w3.org/Graphics/SVG/1.1/DTD/svg11.dtd"><svg width="100%" height="100%" viewBox="0 0 4168 1099" version="1.1" xmlns="http://www.w3.org/2000/svg" xmlns:xlink="http://www.w3.org/1999/xlink" xml:space="preserve" xmlns:serif="http://www.serif.com/" style="fill-rule:evenodd;clip-rule:evenodd;stroke-linejoin:round;stroke-miterlimit:2;"><path d="M0,862.496l15.701,-274.771l43.178,0l63.982,188.414l1.57,0l63.982,-188.414l43.178,0l15.701,274.771l-35.328,0l-11.776,-204.116l-1.963,0l-56.917,168.788l-35.328,0l-56.917,-168.788l-1.963,0l-11.776,204.116l-35.328,0Z" style="fill:#fbfbfb;fill-rule:nonzero;stroke:#fff;stroke-opacity:0;stroke-width:5.46px;"/><path d="M351.314,944.927c-7.851,0 -16.159,-0.85 -24.926,-2.551c-8.767,-1.701 -16.159,-3.467 -22.178,-5.299l0,-15.701l39.253,0c17.795,0 30.748,-4.645 38.86,-13.935c8.112,-9.29 12.168,-26.234 12.168,-50.833c-5.757,2.879 -11.776,5.234 -18.056,7.066c-6.28,1.832 -13.346,2.748 -21.197,2.748c-12.299,0 -23.028,-1.636 -32.187,-4.907c-9.159,-3.271 -16.225,-9.159 -21.197,-17.664c-4.972,-8.505 -7.458,-20.608 -7.458,-36.309l0,-141.311l35.328,0l0,141.311c0,13.608 3.533,22.898 10.598,27.87c7.066,4.972 15.963,7.458 26.692,7.458c4.972,0 10.075,-0.85 15.309,-2.551c5.234,-1.701 9.29,-3.467 12.168,-5.299l0,-168.788l35.328,0l0,180.564c0,24.86 -2.748,44.421 -8.243,58.683c-5.495,14.262 -14,24.402 -25.514,30.421c-11.514,6.019 -26.43,9.028 -44.748,9.028Z" style="fill:#fbfbfb;fill-rule:nonzero;stroke:#fff;stroke-opacity:0;stroke-width:5.46px;"/><path d="M566.955,859.906l0,-686.221c25.195,-7.293 51.217,-12.431 78.07,-15.415c26.852,-2.983 58.843,-4.475 95.971,-4.475c55.03,0 99.618,8.288 133.764,24.863c34.145,16.575 59.34,43.096 75.584,79.562c16.244,36.466 24.366,84.534 24.366,144.206c0,62.987 -7.624,113.376 -22.874,151.167c-15.25,37.791 -37.958,65.142 -68.125,82.048c-30.167,16.906 -67.794,25.36 -112.879,25.36c-7.293,0 -20.056,-0.994 -38.289,-2.983c-18.233,-1.989 -33.648,-4.31 -46.245,-6.962l0,208.849l-119.343,0Zm119.342,-278.466l54.699,0c25.195,0 46.245,-5.304 63.153,-15.912c16.906,-10.609 29.67,-28.842 38.289,-54.699c8.619,-25.857 12.929,-61.992 12.929,-108.404c0,-45.085 -4.31,-80.225 -12.929,-105.419c-8.619,-25.195 -21.382,-42.93 -38.289,-53.207c-16.906,-10.276 -37.958,-15.415 -63.153,-15.415l-54.699,0l0,353.056Z" style="fill:#fbfbfb;fill-rule:nonzero;stroke:#fff;stroke-opacity:0;stroke-width:5.46px;"/><path d="M1273.066,869.851c-51.052,0 -93.154,-8.454 -126.304,-25.36c-33.15,-16.906 -57.682,-44.256 -73.594,-82.048c-15.912,-37.791 -23.868,-88.181 -23.868,-151.167c0,-62.987 7.459,-113.376 22.377,-151.167c14.917,-37.791 36.466,-65.142 64.644,-82.048c28.178,-16.906 62.157,-25.36 101.939,-25.36c39.78,0 73.76,8.454 101.939,25.36c28.178,16.906 49.726,44.256 64.644,82.048c14.917,37.791 22.377,88.181 22.377,151.167l0,34.808l-258.576,0c0,57.019 10.112,96.967 30.333,119.841c20.222,22.874 51.55,34.311 93.982,34.311l109.398,0l0,49.726c-14.586,4.641 -33.483,9.116 -56.688,13.426c-23.205,4.31 -47.406,6.465 -72.6,6.465l-0.003,-0.001Zm-104.425,-293.385l139.233,0c0,-43.096 -2.983,-76.081 -8.951,-98.955c-5.968,-22.874 -14.255,-38.621 -24.863,-47.24c-10.609,-8.619 -22.543,-12.929 -35.803,-12.929c-13.26,0 -25.195,4.31 -35.803,12.929c-10.609,8.619 -18.896,24.366 -24.863,47.24c-5.968,22.874 -8.951,55.86 -8.951,98.955Z" style="fill:#fbfbfb;fill-rule:nonzero;stroke:#fff;stroke-opacity:0;stroke-width:5.46px;"/><path d="M1695.739,869.851c-27.846,0 -53.538,-4.475 -77.076,-13.426c-23.537,-8.951 -42.268,-25.526 -56.191,-49.726c-13.923,-24.199 -20.885,-59.506 -20.885,-105.916l0,-253.603l-54.699,0l0,-74.59l54.699,0l0,-119.342l119.342,0l0,119.342l134.261,0l0,54.699c-14.586,4.641 -33.483,9.116 -56.688,13.426c-23.205,4.31 -47.406,6.465 -72.6,6.465l-4.972,0l0,253.603c0,26.521 3.316,46.909 9.945,61.163c6.63,14.255 14.917,24.199 24.863,29.836c9.945,5.635 19.891,8.454 29.836,8.454l89.507,0l0,49.726c-7.957,3.316 -18.896,6.465 -32.819,9.448c-13.923,2.983 -28.509,5.469 -43.759,7.459c-15.25,1.989 -29.504,2.983 -42.765,2.983l0,-0.001Z" style="fill:#fbfbfb;fill-rule:nonzero;stroke:#fff;stroke-opacity:0;stroke-width:5.46px;"/><path d="M2108.465,869.851c-51.052,0 -93.982,-10.443 -128.79,-31.328c-34.808,-20.885 -60.998,-57.351 -78.567,-109.398c-17.57,-52.047 -26.354,-124.482 -26.354,-217.303c0,-92.822 8.619,-165.256 25.857,-217.303c17.239,-52.047 42.599,-88.513 76.081,-109.398c33.483,-20.885 74.093,-31.328 121.83,-31.328c35.139,0 66.799,1.989 94.977,5.968c28.178,3.978 49.561,8.619 64.147,13.923l0,54.699l-119.342,0c-27.846,0 -52.71,8.121 -74.59,24.366c-21.88,16.244 -38.952,44.754 -51.217,85.53c-12.265,40.776 -18.399,98.623 -18.399,173.544c0,74.257 6.299,131.94 18.896,173.047c12.598,41.107 30.498,69.783 53.705,86.027c23.205,16.244 50.389,24.366 81.551,24.366l119.342,0l0,54.699c-14.586,4.641 -35.969,9.116 -64.147,13.426c-28.178,4.31 -59.837,6.465 -94.977,6.465l-0.001,0Z" style="fill:#fbfbfb;fill-rule:nonzero;stroke:#fff;stroke-opacity:0;stroke-width:5.46px;"/><path d="M2476.439,869.851c-27.846,0 -53.538,-4.31 -77.076,-12.929c-23.537,-8.619 -42.268,-24.366 -56.191,-47.24c-13.923,-22.874 -20.885,-55.86 -20.885,-98.955c0,-43.096 7.127,-76.081 21.382,-98.955c14.255,-22.874 33.814,-38.621 58.677,-47.24c24.863,-8.619 52.875,-12.929 84.037,-12.929c15.25,0 30.001,0.994 44.256,2.983c14.255,1.989 27.681,4.31 40.279,6.962l0,-39.78c0,-39.78 -9.282,-66.301 -27.846,-79.562c-18.564,-13.26 -44.09,-19.891 -76.579,-19.891l-99.453,0l0,-49.726c15.25,-5.304 33.98,-9.945 56.191,-13.923c22.211,-3.978 43.262,-5.968 63.153,-5.968c45.085,0 82.711,4.475 112.879,13.426c30.167,8.951 52.875,25.526 68.125,49.726c15.25,24.199 22.874,59.506 22.874,105.916l0,338.138l-84.534,0l-14.917,-29.836l-4.972,0c-10.609,9.945 -24.698,19.061 -42.268,27.349c-17.57,8.288 -39.946,12.431 -67.13,12.431l-0.001,0.001Zm39.78,-69.616c12.598,0 23.702,-2.155 33.317,-6.465c9.614,-4.31 16.741,-8.785 21.382,-13.426l0,-159.124l-54.699,0c-11.271,0 -22.708,2.652 -34.311,7.957c-11.603,5.304 -21.216,14.42 -28.842,27.349c-7.624,12.929 -11.437,30.995 -11.437,54.202c0,23.205 3.813,41.273 11.437,54.202c7.624,12.929 17.239,22.046 28.842,27.349c11.603,5.304 23.04,7.957 34.311,7.957Z" style="fill:#fbfbfb;fill-rule:nonzero;stroke:#fff;stroke-opacity:0;stroke-width:5.46px;"/><path d="M2819.549,859.906l0,-497.262l84.534,0l14.917,39.78l4.972,0c10.609,-9.945 24.863,-19.061 42.765,-27.349c17.902,-8.288 41.77,-12.431 71.605,-12.431l64.644,0l0,84.534l-109.398,0c-12.598,0 -23.537,1.989 -32.819,5.968c-9.282,3.978 -16.575,8.619 -21.88,13.923l0,392.837l-119.342,0l0.001,0Z" style="fill:#fbfbfb;fill-rule:nonzero;stroke:#fff;stroke-opacity:0;stroke-width:5.46px;"/><path d="M3366.538,869.851c-51.052,0 -93.154,-8.454 -126.304,-25.36c-33.15,-16.906 -57.682,-44.256 -73.594,-82.048c-15.912,-37.791 -23.868,-88.181 -23.868,-151.167c0,-62.987 7.459,-113.376 22.377,-151.167c14.917,-37.791 36.466,-65.142 64.644,-82.048c28.178,-16.906 62.157,-25.36 101.939,-25.36c39.78,0 73.76,8.454 101.939,25.36c28.178,16.906 49.726,44.256 64.644,82.048c14.917,37.791 22.377,88.181 22.377,151.167l0,34.808l-258.576,0c0,57.019 10.112,96.967 30.333,119.841c20.222,22.874 51.55,34.311 93.982,34.311l109.398,0l0,49.726c-14.586,4.641 -33.483,9.116 -56.688,13.426c-23.205,4.31 -47.406,6.465 -72.6,6.465l-0.003,-0.001Zm-104.425,-293.385l139.233,0c0,-43.096 -2.983,-76.081 -8.951,-98.955c-5.968,-22.874 -14.255,-38.621 -24.863,-47.24c-10.609,-8.619 -22.543,-12.929 -35.803,-12.929c-13.26,0 -25.195,4.31 -35.803,12.929c-10.609,8.619 -18.896,24.366 -24.863,47.24c-5.968,22.874 -8.951,55.86 -8.951,98.955Z" style="fill:#fbfbfb;fill-rule:nonzero;stroke:#fff;stroke-opacity:0;stroke-width:5.46px;"/><path d="M3627.391,862.496l66.73,-274.771l51.029,0l66.73,274.771l-35.328,0l-17.664,-70.655l-78.506,0l-17.664,70.655l-35.328,0Zm58.879,-98.132l66.73,0l-32.58,-137.385l-1.57,0l-32.58,137.385Z" style="fill:#fbfbfb;fill-rule:nonzero;stroke:#fff;stroke-opacity:0;stroke-width:5.46px;"/><path d="M3845.245,941.002l0,-274.771l29.44,0l1.963,11.776l1.963,0c4.972,-4.972 11.122,-8.832 18.449,-11.58c7.327,-2.748 14.916,-4.122 22.767,-4.122c13.869,0 25.58,3.075 35.131,9.224c9.552,6.15 16.879,16.617 21.982,31.402c5.103,14.785 7.654,35.262 7.654,61.431c0,26.169 -2.551,46.646 -7.654,61.431c-5.103,14.785 -12.43,25.253 -21.982,31.402c-9.552,6.15 -21.262,9.224 -35.131,9.224c-7.851,0 -14.851,-0.916 -21,-2.748c-6.15,-1.832 -12.234,-4.187 -18.253,-7.066l0,84.394l-35.328,0Zm62.805,-98.132c8.636,0 16.028,-2.159 22.178,-6.477c6.15,-4.318 10.86,-12.168 14.131,-23.552c3.271,-11.383 4.907,-27.543 4.907,-48.477c0,-20.935 -1.636,-37.094 -4.907,-48.477c-3.271,-11.383 -7.981,-19.234 -14.131,-23.552c-6.15,-4.318 -13.542,-6.477 -22.178,-6.477c-4.972,0 -10.075,0.785 -15.309,2.355c-5.234,1.57 -9.29,3.402 -12.168,5.495l0,141.311c2.879,1.832 6.935,3.598 12.168,5.299c5.234,1.701 10.337,2.551 15.309,2.551Z" style="fill:#fbfbfb;fill-rule:nonzero;stroke:#fff;stroke-opacity:0;stroke-width:5.46px;"/><path d="M4027.772,941.002l0,-274.771l29.44,0l1.963,11.776l1.963,0c4.972,-4.972 11.122,-8.832 18.449,-11.58c7.327,-2.748 14.916,-4.122 22.767,-4.122c13.869,0 25.58,3.075 35.131,9.224c9.552,6.15 16.879,16.617 21.982,31.402c5.103,14.785 7.654,35.262 7.654,61.431c0,26.169 -2.551,46.646 -7.654,61.431c-5.103,14.785 -12.43,25.253 -21.982,31.402c-9.552,6.15 -21.262,9.224 -35.131,9.224c-7.851,0 -14.851,-0.916 -21,-2.748c-6.15,-1.832 -12.234,-4.187 -18.253,-7.066l0,84.394l-35.328,0Zm62.805,-98.132c8.636,0 16.028,-2.159 22.178,-6.477c6.15,-4.318 10.86,-12.168 14.131,-23.552c3.271,-11.383 4.907,-27.543 4.907,-48.477c0,-20.935 -1.636,-37.094 -4.907,-48.477c-3.271,-11.383 -7.981,-19.234 -14.131,-23.552c-6.15,-4.318 -13.542,-6.477 -22.178,-6.477c-4.972,0 -10.075,0.785 -15.309,2.355c-5.234,1.57 -9.29,3.402 -12.168,5.495l0,141.311c2.879,1.832 6.935,3.598 12.168,5.299c5.234,1.701 10.337,2.551 15.309,2.551Z" style="fill:#fbfbfb;fill-rule:nonzero;stroke:#fff;stroke-opacity:0;stroke-width:5.46px;"/></svg>