<?xml version="1.0" encoding="UTF-8" standalone="no"?><!DOCTYPE svg PUBLIC "-//W3C//DTD SVG 1.1//EN" "http://www.w3.org/Graphics/SVG/1.1/DTD/svg11.dtd"><svg width="100%" height="100%" viewBox="0 0 1000 1000" version="1.1" xmlns="http://www.w3.org/2000/svg" xmlns:xlink="http://www.w3.org/1999/xlink" xml:space="preserve" xmlns:serif="http://www.serif.com/" style="fill-rule:evenodd;clip-rule:evenodd;stroke-linecap:round;stroke-linejoin:round;stroke-miterlimit:1.5;"><path d="M84.324,114.285c0,0 144.407,179.965 192.893,308.139c45.482,120.233 64.336,207.917 92.704,400.683c0,0 -148.914,-190.479 -197.399,-318.653c-45.482,-120.233 -59.83,-197.403 -88.197,-390.169Zm51.918,123.037c28.299,128.365 43.692,186.156 73.11,263.427c31.362,82.373 110.517,197.06 110.517,197.06c-28.299,-128.365 -43.692,-186.156 -73.11,-263.427c-31.362,-82.373 -110.517,-197.06 -110.517,-197.06Z" style="fill:#fbfbfb;stroke:#fff;stroke-opacity:0;stroke-width:1px;"/><path d="M716.163,512.511c-22.492,129.92 -156.645,310.596 -156.645,310.596c-67.381,-206.403 80.079,-340.129 132.513,-379.848c3.554,-5.818 9.287,-11.148 17.529,-15.874c0,0 234.853,0.455 227.994,234.359c-0,0 -155.714,-78.822 -221.392,-149.233Zm-25.098,-36.234c-38.171,41.255 -105.591,130.708 -110.233,251.749c0,-0 95.416,-134.099 126.544,-225.561c-7.33,-9.005 -12.945,-17.798 -16.311,-26.188Z" style="fill:#fbfbfb;stroke:#fff;stroke-opacity:0;stroke-width:1px;"/></svg>