<?xml version="1.0" encoding="UTF-8" standalone="no"?><!DOCTYPE svg PUBLIC "-//W3C//DTD SVG 1.1//EN" "http://www.w3.org/Graphics/SVG/1.1/DTD/svg11.dtd"><svg width="100%" height="100%" viewBox="0 0 2859 1703" version="1.1" xmlns="http://www.w3.org/2000/svg" xmlns:xlink="http://www.w3.org/1999/xlink" xml:space="preserve" xmlns:serif="http://www.serif.com/" style="fill-rule:evenodd;clip-rule:evenodd;stroke-linejoin:round;stroke-miterlimit:2;"><path d="M242.76,410.834l12,-210l33,0l48.9,144l1.2,0l48.9,-144l33,0l12,210l-27,0l-9,-156l-1.5,0l-43.5,129l-27,0l-43.5,-129l-1.5,0l-9,156l-27,0Z" style="fill:#fbfbfb;fill-rule:nonzero;stroke:#fff;stroke-opacity:0;stroke-width:4.17px;"/><path d="M511.26,473.834c-6,0 -12.35,-0.65 -19.05,-1.95c-6.7,-1.3 -12.35,-2.65 -16.95,-4.05l0,-12l30,0c13.6,0 23.5,-3.55 29.7,-10.65c6.2,-7.1 9.3,-20.05 9.3,-38.85c-4.4,2.2 -9,4 -13.8,5.4c-4.8,1.4 -10.2,2.1 -16.2,2.1c-9.4,0 -17.6,-1.25 -24.6,-3.75c-7,-2.5 -12.4,-7 -16.2,-13.5c-3.8,-6.5 -5.7,-15.75 -5.7,-27.75l0,-108l27,0l0,108c0,10.4 2.7,17.5 8.1,21.3c5.4,3.8 12.2,5.7 20.4,5.7c3.8,0 7.7,-0.65 11.7,-1.95c4,-1.3 7.1,-2.65 9.3,-4.05l0,-129l27,0l0,138c0,19 -2.1,33.95 -6.3,44.85c-4.2,10.9 -10.7,18.65 -19.5,23.25c-8.8,4.6 -20.2,6.9 -34.2,6.9Z" style="fill:#fbfbfb;fill-rule:nonzero;stroke:#fff;stroke-opacity:0;stroke-width:4.17px;"/><path d="M229.26,1089.221l0,-524.46c19.256,-5.574 39.144,-9.501 59.667,-11.781c20.522,-2.28 44.972,-3.42 73.348,-3.42c42.058,0 76.135,6.334 102.232,19.002c26.096,12.668 45.352,32.937 57.767,60.807c12.415,27.87 18.622,64.607 18.622,110.213c0,48.139 -5.827,86.65 -17.482,115.533c-11.655,28.883 -29.01,49.786 -52.066,62.707c-23.056,12.921 -51.813,19.382 -86.27,19.382c-5.574,0 -15.328,-0.76 -29.263,-2.28c-13.935,-1.52 -25.716,-3.294 -35.344,-5.321l0,159.618l-91.211,0Zm91.21,-212.824l41.805,0c19.256,0 35.344,-4.054 48.266,-12.161c12.921,-8.108 22.676,-22.043 29.263,-41.805c6.587,-19.762 9.881,-47.379 9.881,-82.85c0,-34.457 -3.294,-61.314 -9.881,-80.569c-6.587,-19.256 -16.342,-32.81 -29.263,-40.665c-12.921,-7.854 -29.01,-11.781 -48.266,-11.781l-41.805,0l0,269.831Z" style="fill:#fbfbfb;fill-rule:nonzero;stroke:#fff;stroke-opacity:0;stroke-width:4.17px;"/><path d="M768.922,1096.822c-39.018,0 -71.195,-6.461 -96.531,-19.382c-25.336,-12.921 -44.085,-33.824 -56.246,-62.707c-12.161,-28.883 -18.242,-67.394 -18.242,-115.533c0,-48.139 5.701,-86.65 17.102,-115.533c11.401,-28.883 27.87,-49.786 49.406,-62.707c21.536,-12.921 47.505,-19.382 77.909,-19.382c30.403,0 56.373,6.461 77.909,19.382c21.536,12.921 38.004,33.824 49.406,62.707c11.401,28.883 17.102,67.394 17.102,115.533l0,26.603l-197.623,0c0,43.578 7.728,74.109 23.183,91.591c15.455,17.482 39.398,26.223 71.828,26.223l83.61,0l0,38.004c-11.148,3.547 -25.59,6.967 -43.325,10.261c-17.735,3.294 -36.231,4.941 -55.486,4.941l-0.002,-0.001Zm-79.809,-224.226l106.412,0c0,-32.937 -2.28,-58.147 -6.841,-75.629c-4.561,-17.482 -10.895,-29.517 -19.002,-36.104c-8.108,-6.587 -17.229,-9.881 -27.363,-9.881c-10.134,0 -19.256,3.294 -27.363,9.881c-8.108,6.587 -14.442,18.622 -19.002,36.104c-4.561,17.482 -6.841,42.692 -6.841,75.629Z" style="fill:#fbfbfb;fill-rule:nonzero;stroke:#fff;stroke-opacity:0;stroke-width:4.17px;"/><path d="M1091.959,1096.822c-21.282,0 -40.918,-3.42 -58.907,-10.261c-17.989,-6.841 -32.304,-19.509 -42.945,-38.004c-10.641,-18.495 -15.962,-45.479 -15.962,-80.949l0,-193.822l-41.805,0l0,-57.007l41.805,0l0,-91.21l91.21,0l0,91.21l102.612,0l0,41.805c-11.148,3.547 -25.59,6.967 -43.325,10.261c-17.735,3.294 -36.231,4.941 -55.486,4.941l-3.8,0l0,193.822c0,20.269 2.534,35.851 7.601,46.745c5.067,10.895 11.401,18.495 19.002,22.803c7.601,4.307 15.202,6.461 22.803,6.461l68.408,0l0,38.004c-6.081,2.534 -14.442,4.941 -25.083,7.221c-10.641,2.28 -21.789,4.18 -33.444,5.701c-11.655,1.52 -22.549,2.28 -32.684,2.28l-0,-0.001Z" style="fill:#fbfbfb;fill-rule:nonzero;stroke:#fff;stroke-opacity:0;stroke-width:4.17px;"/><path d="M1407.395,1096.822c-39.018,0 -71.828,-7.981 -98.431,-23.943c-26.603,-15.962 -46.619,-43.832 -60.047,-83.61c-13.428,-39.778 -20.142,-95.138 -20.142,-166.079c0,-70.941 6.587,-126.301 19.762,-166.079c13.175,-39.778 32.557,-67.648 58.147,-83.61c25.59,-15.962 56.627,-23.943 93.111,-23.943c26.856,0 51.053,1.52 72.588,4.561c21.536,3.04 37.878,6.587 49.026,10.641l0,41.805l-91.21,0c-21.282,0 -40.285,6.207 -57.007,18.622c-16.722,12.415 -29.77,34.204 -39.144,65.368c-9.374,31.164 -14.062,75.375 -14.062,132.635c0,56.753 4.814,100.838 14.442,132.255c9.628,31.417 23.309,53.333 41.045,65.748c17.735,12.415 38.511,18.622 62.327,18.622l91.21,0l0,41.805c-11.148,3.547 -27.49,6.967 -49.026,10.261c-21.536,3.294 -45.732,4.941 -72.588,4.941l-0.001,0Z" style="fill:#fbfbfb;fill-rule:nonzero;stroke:#fff;stroke-opacity:0;stroke-width:4.17px;"/><path d="M1688.627,1096.822c-21.282,0 -40.918,-3.294 -58.907,-9.881c-17.989,-6.587 -32.304,-18.622 -42.945,-36.104c-10.641,-17.482 -15.962,-42.692 -15.962,-75.629c0,-32.937 5.447,-58.147 16.342,-75.629c10.895,-17.482 25.843,-29.517 44.845,-36.104c19.002,-6.587 40.411,-9.881 64.227,-9.881c11.655,0 22.929,0.76 33.824,2.28c10.895,1.52 21.156,3.294 30.784,5.321l0,-30.403c0,-30.403 -7.094,-50.672 -21.282,-60.807c-14.188,-10.134 -33.697,-15.202 -58.527,-15.202l-76.009,0l0,-38.004c11.655,-4.054 25.97,-7.601 42.945,-10.641c16.975,-3.04 33.064,-4.561 48.266,-4.561c34.457,0 63.214,3.42 86.27,10.261c23.056,6.841 40.411,19.509 52.066,38.004c11.655,18.495 17.482,45.479 17.482,80.949l0,258.43l-64.607,0l-11.401,-22.803l-3.8,0c-8.108,7.601 -18.876,14.568 -32.304,20.902c-13.428,6.334 -30.53,9.501 -51.306,9.501l-0.001,0.001Zm30.403,-53.206c9.628,0 18.115,-1.647 25.463,-4.941c7.348,-3.294 12.795,-6.714 16.342,-10.261l0,-121.614l-41.805,0c-8.614,0 -17.355,2.027 -26.223,6.081c-8.868,4.054 -16.215,11.021 -22.043,20.902c-5.827,9.881 -8.741,23.689 -8.741,41.425c0,17.735 2.914,31.544 8.741,41.425c5.827,9.881 13.175,16.849 22.043,20.902c8.868,4.054 17.609,6.081 26.223,6.081Z" style="fill:#fbfbfb;fill-rule:nonzero;stroke:#fff;stroke-opacity:0;stroke-width:4.17px;"/><path d="M1950.857,1089.221l0,-380.044l64.607,0l11.401,30.403l3.8,0c8.108,-7.601 19.002,-14.568 32.684,-20.902c13.682,-6.334 31.924,-9.501 54.726,-9.501l49.406,0l0,64.607l-83.61,0c-9.628,0 -17.989,1.52 -25.083,4.561c-7.094,3.04 -12.668,6.587 -16.722,10.641l0,300.235l-91.21,0l0.001,0Z" style="fill:#fbfbfb;fill-rule:nonzero;stroke:#fff;stroke-opacity:0;stroke-width:4.17px;"/><path d="M2368.906,1096.822c-39.018,0 -71.195,-6.461 -96.531,-19.382c-25.336,-12.921 -44.085,-33.824 -56.246,-62.707c-12.161,-28.883 -18.242,-67.394 -18.242,-115.533c0,-48.139 5.701,-86.65 17.102,-115.533c11.401,-28.883 27.87,-49.786 49.406,-62.707c21.536,-12.921 47.505,-19.382 77.909,-19.382c30.403,0 56.373,6.461 77.909,19.382c21.536,12.921 38.004,33.824 49.406,62.707c11.401,28.883 17.102,67.394 17.102,115.533l0,26.603l-197.623,0c0,43.578 7.728,74.109 23.183,91.591c15.455,17.482 39.398,26.223 71.828,26.223l83.61,0l0,38.004c-11.148,3.547 -25.59,6.967 -43.325,10.261c-17.735,3.294 -36.231,4.941 -55.486,4.941l-0.002,-0.001Zm-79.809,-224.226l106.412,0c0,-32.937 -2.28,-58.147 -6.841,-75.629c-4.561,-17.482 -10.895,-29.517 -19.002,-36.104c-8.108,-6.587 -17.229,-9.881 -27.363,-9.881c-10.134,0 -19.256,3.294 -27.363,9.881c-8.108,6.587 -14.442,18.622 -19.002,36.104c-4.561,17.482 -6.841,42.692 -6.841,75.629Z" style="fill:#fbfbfb;fill-rule:nonzero;stroke:#fff;stroke-opacity:0;stroke-width:4.17px;"/><path d="M2074.219,1442.166l51,-210l39,0l51,210l-27,0l-13.5,-54l-60,0l-13.5,54l-27,0Zm45,-75l51,0l-24.9,-105l-1.2,0l-24.9,105Z" style="fill:#fbfbfb;fill-rule:nonzero;stroke:#fff;stroke-opacity:0;stroke-width:4.17px;"/><path d="M2240.719,1502.166l0,-210l22.5,0l1.5,9l1.5,0c3.8,-3.8 8.5,-6.75 14.1,-8.85c5.6,-2.1 11.4,-3.15 17.4,-3.15c10.6,0 19.55,2.35 26.85,7.05c7.3,4.7 12.9,12.7 16.8,24c3.9,11.3 5.85,26.95 5.85,46.95c0,20 -1.95,35.65 -5.85,46.95c-3.9,11.3 -9.5,19.3 -16.8,24c-7.3,4.7 -16.25,7.05 -26.85,7.05c-6,0 -11.35,-0.7 -16.05,-2.1c-4.7,-1.4 -9.35,-3.2 -13.95,-5.4l0,64.5l-27,0Zm48,-75c6.6,0 12.25,-1.65 16.95,-4.95c4.7,-3.3 8.3,-9.3 10.8,-18c2.5,-8.7 3.75,-21.05 3.75,-37.05c0,-16 -1.25,-28.35 -3.75,-37.05c-2.5,-8.7 -6.1,-14.7 -10.8,-18c-4.7,-3.3 -10.35,-4.95 -16.95,-4.95c-3.8,0 -7.7,0.6 -11.7,1.8c-4,1.2 -7.1,2.6 -9.3,4.2l0,108c2.2,1.4 5.3,2.75 9.3,4.05c4,1.3 7.9,1.95 11.7,1.95Z" style="fill:#fbfbfb;fill-rule:nonzero;stroke:#fff;stroke-opacity:0;stroke-width:4.17px;"/><path d="M2380.219,1502.166l0,-210l22.5,0l1.5,9l1.5,0c3.8,-3.8 8.5,-6.75 14.1,-8.85c5.6,-2.1 11.4,-3.15 17.4,-3.15c10.6,0 19.55,2.35 26.85,7.05c7.3,4.7 12.9,12.7 16.8,24c3.9,11.3 5.85,26.95 5.85,46.95c0,20 -1.95,35.65 -5.85,46.95c-3.9,11.3 -9.5,19.3 -16.8,24c-7.3,4.7 -16.25,7.05 -26.85,7.05c-6,0 -11.35,-0.7 -16.05,-2.1c-4.7,-1.4 -9.35,-3.2 -13.95,-5.4l0,64.5l-27,0Zm48,-75c6.6,0 12.25,-1.65 16.95,-4.95c4.7,-3.3 8.3,-9.3 10.8,-18c2.5,-8.7 3.75,-21.05 3.75,-37.05c0,-16 -1.25,-28.35 -3.75,-37.05c-2.5,-8.7 -6.1,-14.7 -10.8,-18c-4.7,-3.3 -10.35,-4.95 -16.95,-4.95c-3.8,0 -7.7,0.6 -11.7,1.8c-4,1.2 -7.1,2.6 -9.3,4.2l0,108c2.2,1.4 5.3,2.75 9.3,4.05c4,1.3 7.9,1.95 11.7,1.95Z" style="fill:#fbfbfb;fill-rule:nonzero;stroke:#fff;stroke-opacity:0;stroke-width:4.17px;"/><path d="M2082.503,243.843c0,0 98.193,97.21 135.786,170.154c35.264,68.425 52.465,119.303 82.497,232.048c0,0 -101.592,-103.157 -139.185,-176.101c-35.264,-68.425 -49.066,-113.356 -79.099,-226.101l0.001,0Zm39.284,69.654c25.596,74.436 38.698,107.767 61.473,151.729c24.28,46.865 79.198,109.693 79.198,109.693c-25.596,-74.436 -38.698,-107.767 -61.473,-151.729c-24.28,-46.865 -79.198,-109.693 -79.198,-109.693Z" style="fill:#fbfbfb;stroke:#fff;stroke-opacity:0;stroke-width:4.17px;stroke-linecap:round;stroke-miterlimit:1.5;"/><path d="M2487.845,450.574c-4.514,78.827 -71.994,195.471 -71.994,195.471c-54.173,-118.195 24.428,-207.815 52.911,-235.023c1.717,-3.704 4.764,-7.266 9.345,-10.64c0,0 139.751,-15.757 151.633,123.865c0,0 -98.017,-36.266 -141.896,-73.673l0.001,0Zm-17.404,-19.843c-19.893,27.148 -53.898,84.967 -48.398,157.294c0,0 47.613,-86.29 59.889,-142.828c-4.975,-4.857 -8.916,-9.705 -11.491,-14.467l0,0.001Z" style="fill:#fbfbfb;stroke:#fff;stroke-opacity:0;stroke-width:4.17px;stroke-linecap:round;stroke-miterlimit:1.5;"/></svg>