<?xml version="1.0" encoding="UTF-8" standalone="no"?><!DOCTYPE svg PUBLIC "-//W3C//DTD SVG 1.1//EN" "http://www.w3.org/Graphics/SVG/1.1/DTD/svg11.dtd"><svg width="100%" height="100%" viewBox="0 0 544 1000" version="1.1" xmlns="http://www.w3.org/2000/svg" xmlns:xlink="http://www.w3.org/1999/xlink" xml:space="preserve" xmlns:serif="http://www.serif.com/" style="fill-rule:evenodd;clip-rule:evenodd;stroke-linecap:round;stroke-linejoin:round;stroke-miterlimit:1.5;"><g id="bunny"><path d="M490.06,272.965c2.178,127.313 -90.429,133.586 -114.115,135.47c-122.24,9.726 -229.204,-87.912 -205.943,-135.47c23.261,-47.558 108.371,-130.906 178.936,-133.563c62.75,-2.362 139.287,26.274 141.123,133.563Z" style="fill:#e85858;stroke:#fff;stroke-opacity:0;stroke-width:1px;"/><path d="M134.168,866.687c6.431,-2.942 13.818,-3.13 20.046,-0.21c0.368,-11.06 9.263,-21.137 21.376,-23.053c12.113,-1.916 23.684,4.925 27.447,15.332c8.081,-7.56 21.497,-8.396 31.416,-1.186c9.92,7.211 13.264,20.23 8.567,30.249c11.06,0.368 21.137,9.263 23.053,21.376c1.916,12.113 -4.925,23.684 -15.332,27.447c7.56,8.081 8.396,21.497 1.186,31.416c-7.211,9.92 -20.23,13.264 -30.249,8.567c-0.368,11.06 -9.263,21.137 -21.376,23.053c-12.113,1.916 -23.684,-4.925 -27.447,-15.332c-8.081,7.56 -21.497,8.396 -31.416,1.186c-3.066,-2.229 -5.504,-5.013 -7.271,-8.091l-0,-110.755Z" style="fill:#e85858;stroke:#000;stroke-opacity:0;stroke-width:25px;"/><path d="M134.168,467.456c37.773,-67.222 136.13,-105.196 179.866,-96.323c48.082,9.754 131.733,22.27 120.277,147.235c-5.36,58.473 -22.319,117.78 -59.973,179.403c-29.303,47.957 -70.072,108.021 -101.915,135.582c-27.265,23.598 -27.068,23.525 -27.068,23.525c0,0 -48.616,42.391 -111.188,71.216l0,-460.638Z" style="fill:#e85858;stroke:#000;stroke-opacity:0;stroke-width:1px;"/><path d="M405.129,184.265l90.186,-129.782c0.057,-9.713 -2.658,-16.733 -7.869,-20.355c-16.387,-11.387 -53.022,12.943 -81.759,54.298c-28.738,41.355 -38.765,84.174 -22.379,95.562c5.212,3.622 12.738,3.717 21.821,0.277Z" style="fill:#e85858;"/><path d="M208.299,489.129l-189.835,-21.382c-8.906,-7.415 -13.162,-15.167 -12.338,-22.477c2.589,-22.985 53.802,-36.115 114.292,-29.301c60.491,6.813 107.5,31.006 104.911,53.991c-0.823,7.31 -6.697,13.922 -17.029,19.169Z" style="fill:#e85858;"/><path d="M134.168,756.955l0,-257.611c71.419,-78.472 135.613,-41.728 147.453,-18.621c14.339,27.984 19.112,111.997 -117.524,249.074c-10.34,10.373 -20.318,19.377 -29.929,27.158Z" style="fill:#fbfbfb;stroke:#000;stroke-opacity:0;stroke-width:1px;"/><path d="M537.637,139.025l-49.015,-105.337c-7.521,-2.994 -14.542,-3.145 -20.359,-0.439c-18.288,8.509 -20.454,42.669 -4.836,76.235c15.619,33.566 43.146,53.908 61.433,45.398c5.816,-2.706 10.223,-8.175 12.776,-15.857Z" style="fill:#e85858;"/><path d="M327.24,583.825l-203.378,76.353c-13.287,-4.071 -22.094,-11.041 -25.536,-20.21c-10.822,-28.827 33.005,-71.984 97.811,-96.314c64.806,-24.33 126.207,-20.678 137.029,8.149c3.442,9.169 1.398,20.212 -5.927,32.022Z" style="fill:#e85858;"/><path d="M182.389,260.621c-11.262,3.067 -17.915,14.699 -14.848,25.961c3.067,11.262 14.699,17.915 25.961,14.848c11.262,-3.067 17.915,-14.699 14.848,-25.961c-3.067,-11.262 -14.699,-17.915 -25.961,-14.848Z" style="fill:#fbfbfb;stroke:#fff;stroke-opacity:0;stroke-width:1px;"/><path d="M358.926,164.981l-80.893,-159.892c-9.524,-5.358 -17.836,-6.51 -24.1,-3.341c-19.695,9.964 -14.758,59.419 11.018,110.368c25.777,50.949 62.694,84.224 82.389,74.259c6.264,-3.169 10.26,-10.548 11.586,-21.395Z" style="fill:#e85858;"/></g></svg>